<?xml version="1.0" encoding="UTF-8"?><svg xmlns="http://www.w3.org/2000/svg" xmlns:xlink="http://www.w3.org/1999/xlink" fill="#7289da" height="64.0" preserveAspectRatio="xMidYMid meet" version="1.0" viewBox="3.7 0.0 56.5 64.0" width="56.5" zoomAndPan="magnify">
 <g id="change1_1"><path d="m37.922 26.852c-1.84 0-3.292 1.58-3.292 3.55s1.485 3.55 3.292 3.55c1.84 0 3.292-1.58 3.292-3.55s-1.485-3.55-3.292-3.55zm-11.78 0c-1.84 0-3.292 1.58-3.292 3.55s1.485 3.55 3.292 3.55c1.84 0 3.292-1.58 3.292-3.55 0.032-1.97-1.452-3.55-3.292-3.55zm27.466-26.852h-43.248a6.63 6.63 0 0 0 -6.616 6.616v43.248a6.63 6.63 0 0 0 6.616 6.616h36.6l-1.7-5.906 4.13 3.808 3.905 3.582 6.961 6.036v-57.384c-0.032-3.646-3.001-6.616-6.648-6.616zm-12.458 41.795l-2.13-2.582c4.228-1.194 5.842-3.808 5.842-3.808-1.323 0.87-2.582 1.485-3.712 1.904-1.614 0.678-3.163 1.097-4.68 1.388-3.098 0.58-5.938 0.42-8.36-0.032-1.84-0.355-3.42-0.84-4.744-1.388-0.742-0.3-1.55-0.645-2.356-1.097-0.097-0.065-0.194-0.097-0.3-0.16-0.065-0.032-0.097-0.065-0.13-0.065l-0.904-0.55s1.55 2.55 5.648 3.776l-2.162 2.646c-7.133-0.226-9.844-4.873-9.844-4.873 0-10.296 4.648-18.655 4.648-18.655 4.648-3.453 9.037-3.357 9.037-3.357l0.323 0.387c-5.8 1.646-8.456 4.196-8.456 4.196s0.7-0.387 1.904-0.904c3.453-1.517 6.197-1.904 7.326-2.033 0.194-0.032 0.355-0.065 0.55-0.065a27.31 27.31 0 0 1 6.519 -0.065 26.86 26.86 0 0 1 9.715 3.066s-2.55-2.42-8.036-4.067l0.452-0.516s4.422-0.097 9.037 3.357 4.648 8.36 4.648 18.655c0-0.032-2.7 4.615-9.844 4.84z" fill="inherit"/></g>
</svg>