<?xml version="1.0" encoding="UTF-8" standalone="no"?><svg xmlns="http://www.w3.org/2000/svg" xmlns:xlink="http://www.w3.org/1999/xlink" fill="#f2f2f2" height="82" preserveAspectRatio="xMidYMid meet" version="1" viewBox="0.0 0.0 93.0 82.0" width="93" zoomAndPan="magnify"><g id="change1_1"><path d="m299.78571 439.93363a41.00001 41.00001 0 0 0 -34.49024 18.9141 15.500003 21.500006 0 0 1 12.49024 21.0859 15.500003 21.500006 0 0 1 -2.30274 11.1954c3.207 2.223 5.303 5.925 5.303 10.139v12.334c0 1.156-.17 2.269-.465 3.328a41.00001 41.00001 0 0 0 19.46485 5.0039 41.00001 41.00001 0 0 0 41 -41 41.00001 41.00001 0 0 0 -41 -41m-37.5 22a11.500002 18 0 0 0 -11.5 18 11.500002 18 0 0 0 1.75976 9.5274c1.131-.34 2.33-.527 3.574-.527h12.334c1.248 0 2.448.188 3.582.529a11.500002 18 0 0 0 1.75 -9.5293 11.500002 18 0 0 0 -11.5 -18m23.19 7l11.12 4.899a2.0002 2.0002 0 0 1 .0762 3.625l-11.12 5.475-1.766-3.588 7.27-3.58-7.193-3.17 1.613-3.66m29.31443 1a6 6 0 0 1 6 6 6 6 0 0 1 -6 6 6 6 0 0 1 -6 -6 6 6 0 0 1 6 -6m-57.33 23c-5.355 0-9.668 4.313-9.668 9.668v9.666c0 5.355 4.313 9.666 9.668 9.666h9.666c3.66 0 6.831-2.01 8.473-5h-14.807v-3h15.848c.094-.542.152-1.096.152-1.666v-3.334h-16v-3h16v-3.332c0-.57-.059-1.125-.152-1.668h-15.848v-3h14.807c-1.642-2.984-4.813-5-8.473-5h-9.666m30.748 0c0 0 5.192 8 13.621 8 8.429 0 13.619-8 13.619-8l3.381 2.137c0 0-6.106 9.863-17 9.863-10.894 0-17-9.863-17-9.863l3.379-2.137" transform="translate(-247.79 -439.93)"/></g></svg>